<svg xmlns:rdf="http://www.w3.org/1999/02/22-rdf-syntax-ns#" xmlns:svg="http://www.w3.org/2000/svg" xmlns="http://www.w3.org/2000/svg" xmlns:xlink="http://www.w3.org/1999/xlink" id="svg379239" version="1.1" viewBox="262.82 363.18 498.37 41.64">     <g id="logo-group">       <g id="title" style="font-style:normal;font-weight:700;font-size:72px;line-height:1;font-family:'Meedori Sans';font-variant-ligatures:none;text-align:center;text-anchor:middle" transform="translate(0 0)">         <path id="path379248" style="font-style:normal;font-weight:700;font-size:72px;line-height:1;font-family:'Meedori Sans';font-variant-ligatures:none;text-align:center;text-anchor:middle" d="m 217.07394,0 v -9 h 36.072 v 9 z m 32.04,-31.536 v 9 h -32.04 v -9 z M 217.07394,-54 h 36.072 v 9 h -36.072 z" stroke-width="0" stroke-linejoin="miter" stroke-miterlimit="2" fill="#1f1f1f" stroke="#1f1f1f" transform="translate(0 300.74572) translate(262.81587249999995 62.492000000000004) scale(0.77) translate(-217.07394 54)"/>         <path id="path379250" style="font-style:normal;font-weight:700;font-size:72px;line-height:1;font-family:'Meedori Sans';font-variant-ligatures:none;text-align:center;text-anchor:middle" d="m 299.58481,-9 v 9 h -36.072 v -54.072 h 8.928 l 0.072,45.072 z" stroke-width="0" stroke-linejoin="miter" stroke-miterlimit="2" fill="#1f1f1f" stroke="#1f1f1f" transform="translate(0 300.74572) translate(302.42380239999994 62.43656) scale(0.77) translate(-263.51281 54.072)"/>         <path id="path379252" style="font-style:normal;font-weight:700;font-size:72px;line-height:1;font-family:'Meedori Sans';font-variant-ligatures:none;text-align:center;text-anchor:middle" d="m 348.06781,-45 h -27.072 v 13.464 h 23.04 v 9 h -23.04 V -9 h 27.072 v 9 h -36.072 v -54 h 36.072 v 9 z" stroke-width="0" stroke-linejoin="miter" stroke-miterlimit="2" fill="#1f1f1f" stroke="#1f1f1f" transform="translate(0 300.74572) translate(343.60571239999996 62.492000000000004) scale(0.77) translate(-311.99581 54)"/>         <path id="path379254" style="font-style:normal;font-weight:700;font-size:72px;line-height:1;font-family:'Meedori Sans';font-variant-ligatures:none;text-align:center;text-anchor:middle" d="m 405.48444,-8.136 q -3.816,3.744 -8.712,5.904 -4.896,2.088 -10.224,2.088 -5.256,0 -10.152,-2.088 -4.824,-2.16 -8.568,-5.832 -3.744,-3.672 -5.976,-8.568 -2.232,-4.896 -2.232,-10.44 0,-5.256 2.088,-10.08 2.16,-4.896 5.832,-8.64 3.672,-3.744 8.568,-5.976 4.896,-2.232 10.44,-2.232 5.328,0 10.224,2.16 4.896,2.088 8.712,5.832 l -5.976,5.976 q -2.952,-2.232 -6.12,-3.6 -3.096,-1.44 -6.84,-1.44 -3.744,0 -7.056,1.44 -3.24,1.368 -5.688,3.816 -2.376,2.448 -3.816,5.76 -1.368,3.24 -1.368,6.984 0,3.744 1.368,7.056 1.44,3.24 3.816,5.688 2.448,2.376 5.688,3.816 3.312,1.368 7.056,1.368 3.744,0 6.768,-1.368 3.024,-1.368 5.256,-3.6 z" stroke-width="0" stroke-linejoin="miter" stroke-miterlimit="2" fill="#1f1f1f" stroke="#1f1f1f" transform="translate(0 300.74572) translate(384.1266774999999 62.492000000000004) scale(0.77) translate(-359.62044 54)"/>         <path id="path379256" style="font-style:normal;font-weight:700;font-size:72px;line-height:1;font-family:'Meedori Sans';font-variant-ligatures:none;text-align:center;text-anchor:middle" d="m 460.89181,-45 h -18 V 0 h -9 v -45 h -18 v -9 h 45 z" stroke-width="0" stroke-linejoin="miter" stroke-miterlimit="2" fill="#1f1f1f" stroke="#1f1f1f" transform="translate(0 300.74572) translate(431.3056324 62.492000000000004) scale(0.77) translate(-415.89181 54)"/>         <path id="path379258" style="font-style:normal;font-weight:700;font-size:72px;line-height:1;font-family:'Meedori Sans';font-variant-ligatures:none;text-align:center;text-anchor:middle" d="m 513.72181,0 h -10.008 l -11.952,-22.032 h -11.088 V 0 h -8.928 v -54 h 25.992 q 4.176,0.216 7.488,2.016 1.368,0.792 2.736,1.944 1.368,1.152 2.376,2.808 1.08,1.656 1.728,3.96 0.648,2.232 0.648,5.256 0,4.896 -1.584,8.064 -1.584,3.096 -3.6,4.896 -1.944,1.728 -3.744,2.376 -1.728,0.648 -2.088,0.648 z m -33.048,-30.96 h 17.064 q 1.656,-0.072 2.952,-0.864 1.152,-0.648 2.088,-2.088 0.936,-1.44 0.936,-4.104 0,-2.592 -0.936,-4.032 -0.936,-1.44 -2.088,-2.088 -1.296,-0.792 -2.952,-0.864 h -17.064 z" stroke-width="0" stroke-linejoin="miter" stroke-miterlimit="2" fill="#1f1f1f" stroke="#1f1f1f" transform="translate(0 300.74572) translate(478.16321239999996 62.492000000000004) scale(0.77) translate(-471.74581 54)"/>         <path id="path379260" style="font-style:normal;font-weight:700;font-size:72px;line-height:1;font-family:'Meedori Sans';font-variant-ligatures:none;text-align:center;text-anchor:middle" d="m 525.88644,-54 h 8.928 V 0 h -8.928 z" stroke-width="0" stroke-linejoin="miter" stroke-miterlimit="2" fill="#1f1f1f" stroke="#1f1f1f" transform="translate(0 300.74572) translate(523.7014975 62.492000000000004) scale(0.77) translate(-525.88644 54)"/>         <path id="path379262" style="font-style:normal;font-weight:700;font-size:72px;line-height:1;font-family:'Meedori Sans';font-variant-ligatures:none;text-align:center;text-anchor:middle" d="m 593.64069,-8.136 q -3.816,3.744 -8.712,5.904 -4.896,2.088 -10.224,2.088 -5.256,0 -10.152,-2.088 -4.824,-2.16 -8.568,-5.832 -3.744,-3.672 -5.976,-8.568 -2.232,-4.896 -2.232,-10.44 0,-5.256 2.088,-10.08 2.16,-4.896 5.832,-8.64 3.672,-3.744 8.568,-5.976 4.896,-2.232 10.44,-2.232 5.328,0 10.224,2.16 4.896,2.088 8.712,5.832 l -5.976,5.976 q -2.952,-2.232 -6.12,-3.6 -3.096,-1.44 -6.84,-1.44 -3.744,0 -7.056,1.44 -3.24,1.368 -5.688,3.816 -2.376,2.448 -3.816,5.76 -1.368,3.24 -1.368,6.984 0,3.744 1.368,7.056 1.44,3.24 3.816,5.688 2.448,2.376 5.688,3.816 3.312,1.368 7.056,1.368 3.744,0 6.768,-1.368 3.024,-1.368 5.256,-3.6 z" stroke-width="0" stroke-linejoin="miter" stroke-miterlimit="2" fill="#1f1f1f" stroke="#1f1f1f" transform="translate(0 300.74572) translate(544.40699 62.492000000000004) scale(0.77) translate(-547.77669 54)"/>         <path id="path379264" style="font-style:normal;font-weight:700;font-size:72px;line-height:1;font-family:'Meedori Sans';font-variant-ligatures:none;text-align:center;text-anchor:middle" d="m 655.40544,-53.928 q 4.176,0.216 7.488,1.944 1.368,0.72 2.736,1.872 1.368,1.08 2.376,2.736 1.08,1.656 1.728,3.888 0.648,2.232 0.648,5.184 0,3.024 -0.648,5.256 -0.648,2.232 -1.728,3.96 -1.008,1.656 -2.376,2.808 -1.368,1.152 -2.736,1.872 -3.312,1.8 -7.488,2.016 h -18.144 V 0 h -9 v -31.464 h 26.496 q 0.072,0 1.152,-0.072 1.08,-0.144 2.232,-0.792 1.224,-0.648 2.232,-2.016 1.008,-1.368 1.008,-3.96 0,-2.52 -1.08,-3.816 -1.008,-1.368 -2.232,-2.016 -1.44,-0.792 -3.312,-0.864 h -26.496 v -9 h 27.144 v 0.072 z" stroke-width="0" stroke-linejoin="miter" stroke-miterlimit="2" fill="#5647c2" stroke="#5647c2" transform="translate(0 300.74572) translate(610.2302474999999 62.492000000000004) scale(0.77) translate(-628.26144 54)"/>         <path id="path379266" style="font-style:normal;font-weight:700;font-size:72px;line-height:1;font-family:'Meedori Sans';font-variant-ligatures:none;text-align:center;text-anchor:middle" d="M 694.45306,-54.072 721.52506,0 h -9.936 l -6.12,-10.944 h -21.96 L 678.39706,0 h -10.944 z m -5.976,33.984 h 12.96 l -6.984,-13.896 z" stroke-width="0" stroke-linejoin="miter" stroke-miterlimit="2" fill="#5647c2" stroke="#5647c2" transform="translate(0 300.74572) translate(644.2577949 62.43656) scale(0.77) translate(-667.45306 54.072)"/>         <path id="path379268" style="font-style:normal;font-weight:700;font-size:72px;line-height:1;font-family:'Meedori Sans';font-variant-ligatures:none;text-align:center;text-anchor:middle" d="m 748.46881,-31.968 q 0.576,0.072 1.944,0.288 1.44,0.216 3.168,0.864 1.8,0.576 3.672,1.584 1.872,1.008 3.384,2.808 1.512,1.728 2.52,4.248 1.008,2.52 1.008,6.048 0,0.144 -0.144,1.44 -0.072,1.224 -0.648,3.024 -0.576,1.8 -1.728,3.816 -1.152,2.016 -3.312,3.816 -2.16,1.728 -5.472,2.88 -3.24,1.152 -7.992,1.152 -4.392,0 -8.352,-1.8 -3.888,-1.872 -6.696,-5.112 l 7.344,-5.688 q 0,0.072 0.504,0.648 0.576,0.576 1.584,1.224 1.08,0.648 2.664,1.224 1.656,0.504 3.888,0.504 4.104,0 6.408,-2.088 2.304,-2.16 2.304,-5.04 0,-2.088 -0.864,-3.384 -0.864,-1.368 -2.376,-2.16 -1.44,-0.864 -3.384,-1.296 -1.872,-0.504 -4.032,-0.936 -0.576,-0.072 -1.944,-0.36 -1.296,-0.288 -2.952,-0.936 -1.584,-0.648 -3.384,-1.656 -1.728,-1.08 -3.168,-2.664 -1.368,-1.656 -2.304,-3.888 -0.936,-2.304 -0.936,-5.4 0,-0.144 0.072,-1.296 0.144,-1.224 0.648,-2.88 0.576,-1.728 1.728,-3.672 1.224,-1.944 3.384,-3.528 2.16,-1.656 5.4,-2.736 3.312,-1.08 8.064,-1.08 4.392,0 8.352,1.872 3.96,1.872 6.768,5.112 l -7.344,5.688 q -0.792,-1.368 -2.232,-2.088 -1.44,-0.792 -2.88,-1.152 -1.728,-0.36 -3.672,-0.432 -4.104,0 -6.408,1.656 -2.304,1.584 -2.304,4.536 0,2.088 0.72,3.312 0.72,1.152 1.944,1.8 1.296,0.648 3.096,1.008 1.8,0.288 3.96,0.72 z" stroke-width="0" stroke-linejoin="miter" stroke-miterlimit="2" fill="#5647c2" stroke="#5647c2" transform="translate(0 300.74572) translate(695.6320024 62.492000000000004) scale(0.77) translate(-729.17281 54)"/>         <path id="path379270" style="font-style:normal;font-weight:700;font-size:72px;line-height:1;font-family:'Meedori Sans';font-variant-ligatures:none;text-align:center;text-anchor:middle" d="m 793.60944,-31.968 q 0.576,0.072 1.944,0.288 1.44,0.216 3.168,0.864 1.8,0.576 3.672,1.584 1.872,1.008 3.384,2.808 1.512,1.728 2.52,4.248 1.008,2.52 1.008,6.048 0,0.144 -0.144,1.44 -0.072,1.224 -0.648,3.024 -0.576,1.8 -1.728,3.816 -1.152,2.016 -3.312,3.816 -2.16,1.728 -5.472,2.88 -3.24,1.152 -7.992,1.152 -4.392,0 -8.352,-1.8 -3.888,-1.872 -6.696,-5.112 l 7.344,-5.688 q 0,0.072 0.504,0.648 0.576,0.576 1.584,1.224 1.08,0.648 2.664,1.224 1.656,0.504 3.888,0.504 4.104,0 6.408,-2.088 2.304,-2.16 2.304,-5.04 0,-2.088 -0.864,-3.384 -0.864,-1.368 -2.376,-2.16 -1.44,-0.864 -3.384,-1.296 -1.872,-0.504 -4.032,-0.936 -0.576,-0.072 -1.944,-0.36 -1.296,-0.288 -2.952,-0.936 -1.584,-0.648 -3.384,-1.656 -1.728,-1.08 -3.168,-2.664 -1.368,-1.656 -2.304,-3.888 -0.936,-2.304 -0.936,-5.4 0,-0.144 0.072,-1.296 0.144,-1.224 0.648,-2.88 0.576,-1.728 1.728,-3.672 1.224,-1.944 3.384,-3.528 2.16,-1.656 5.4,-2.736 3.312,-1.08 8.064,-1.08 4.392,0 8.352,1.872 3.96,1.872 6.768,5.112 l -7.344,5.688 q -0.792,-1.368 -2.232,-2.088 -1.44,-0.792 -2.88,-1.152 -1.728,-0.36 -3.672,-0.432 -4.104,0 -6.408,1.656 -2.304,1.584 -2.304,4.536 0,2.088 0.72,3.312 0.72,1.152 1.944,1.8 1.296,0.648 3.096,1.008 1.8,0.288 3.96,0.72 z" stroke-width="0" stroke-linejoin="miter" stroke-miterlimit="2" fill="#5647c2" stroke="#5647c2" transform="translate(0 300.74572) translate(734.2402875 62.492000000000004) scale(0.77) translate(-774.31344 54)"/>       </g>     </g>    </svg>